#!OML:ASF I:\golf\golf\golf 2\Subject 1\2002-09-07\Subject1.ASF
:FULLY-SPECIFIED
:DEGREES
227
root -5.80685 17.6999 3.27917 2.237 36.8204 -8.65812
lowerback 1.30059 -10.2551 -15.7206
upperback -1.59497 -13.8461 -4.57221
thorax 0.0567583 -6.69516 3.49415
lowerneck -5.41445 22.2216 0.593187
upperneck 13.9854 32.6968 -13.4071
head 7.61145 14.7059 -1.15181
rclavicle -2.8625e-014 7.63333e-014
rhumerus 25.7291 -22.4587 -65.632
rradius 108.841
rwrist -0.00520279
rhand -59.6791 22.7396
rfingers 7.12502
rthumb -31.8463 -4.49706
lclavicle -2.8625e-014 7.63333e-014
lhumerus 108.6 -44.5616 44.3302
lradius 35.9798
lwrist 2.05978
lhand -19.3412 1.33592
lfingers 7.12502
lthumb -173.024 211.201
rfemur -29.5148 20.5764 24.7395
rtibia 34.0754
rfoot -4.22417 24.6998
rtoes 34.2192
lfemur 0.335013 20.8218 7.39173
ltibia 35.9622
lfoot 5.74977 17.2694
ltoes -23.5725
228
root -5.80552 17.6989 3.30044 2.36372 36.4637 -8.50329
lowerback 1.31007 -10.3267 -15.605
upperback -1.62652 -13.9478 -4.54733
thorax 0.0153614 -6.74422 3.46175
lowerneck -5.93235 22.2868 0.293828
upperneck 14.0406 32.8636 -13.4797
head 7.69494 14.7252 -1.06001
rclavicle 1.47101e-014 1.90833e-014
rhumerus 26.9451 -22.8178 -64.6857
rradius 109.117
rwrist 0.462826
rhand -59.6102 21.8187
rfingers 7.12502
rthumb -31.7807 -5.43102
lclavicle 1.47101e-014 1.90833e-014
lhumerus 109.425 -43.5549 44.2722
lradius 36.2718
lwrist 2.53693
lhand -20.1311 0.742168
lfingers 7.12502
lthumb -173.787 210.631
rfemur -29.5314 20.7232 24.7086
rtibia 34.1735
rfoot -4.1242 24.9056
rtoes 34.4073
lfemur 0.557317 20.8093 7.3749
ltibia 35.9234
lfoot 4.49797 18.0372
ltoes -16.9283
229
root -5.80338 17.7 3.3197 2.44234 36.1431 -8.35643
lowerback 1.2619 -10.0543 -15.3858
upperback -1.78236 -13.5957 -4.99466
thorax -0.342379 -6.54042 2.95816
lowerneck -4.92424 21.9893 1.6773
upperneck 14.0678 32.3694 -13.7301
head 7.75723 14.591 -1.40284
rclavicle 2.94201e-014 7.31528e-014
rhumerus 26.7004 -24.1216 -63.3585
rradius 109.434
rwrist 0.963565
rhand -59.5829 21.4057
rfingers 7.12502
rthumb -31.7546 -5.84912
lclavicle 2.94201e-014 7.31528e-014
lhumerus 110.78 -43.9035 43.6938
lradius 36.6362
lwrist 3.19147
lhand -20.5337 0.237499
lfingers 7.12502
lthumb -174.175 210.137
rfemur -29.4855 20.9308 24.6698
rtibia 34.2453
rfoot -4.15412 25.022
rtoes 34.4156
lfemur 0.783945 20.7339 7.34748
ltibia 35.8857
lfoot 5.15546 17.8645
ltoes -17.2598
230
root -5.80039 17.7035 3.34137 2.6496 35.7878 -8.14905
lowerback 1.1346 -10.1413 -15.4043
upperback -1.80317 -13.6879 -4.93764
thorax -0.261741 -6.59073 2.99246
lowerneck -5.20497 22.1631 1.01299
upperneck 13.6694 32.5399 -13.5858
head 7.55549 14.6736 -1.28735
rclavicle -2.0276e-014 9.54166e-015
rhumerus 27.9038 -24.4812 -62.4684
rradius 109.518
rwrist 1.44762
rhand -59.6147 21.6181
rfingers 7.12502
rthumb -31.785 -5.63073
lclavicle -2.0276e-014 9.54166e-015
lhumerus 111.345 -43.018 43.8975
lradius 36.8916
lwrist 3.44407
lhand -21.0398 -0.335945
lfingers 7.12502
lthumb -174.664 209.577
rfemur -29.5293 21.2992 24.5139
rtibia 34.2889
rfoot -4.25249 24.993
rtoes 34.1184
lfemur 0.935038 20.7599 7.23071
ltibia 35.8258
lfoot 7.15406 16.9942
ltoes -23.211
231
root -5.797 17.708 3.36319 2.86305 35.4158 -8.05308
lowerback 0.894211 -10.1593 -15.2756
upperback -1.84008 -13.6674 -4.93006
thorax -0.197319 -6.58598 2.89847
lowerneck -5.33233 22.2534 0.658845
upperneck 13.3312 32.5956 -13.4985
head 7.39758 14.7161 -1.23925
rclavicle 2.82274e-014 -4.77083e-014
rhumerus 28.7879 -24.97 -61.5125
rradius 109.557
rwrist 1.98903
rhand -59.7004 21.5345
rfingers 7.12502
rthumb -31.8665 -5.69814
lclavicle 2.82274e-014 -4.77083e-014
lhumerus 112.059 -42.2555 43.8359
lradius 37.2553
lwrist 3.84486
lhand -21.5036 -0.665004
lfingers 7.12502
lthumb -175.112 209.259
rfemur -29.6501 21.7152 24.4171
rtibia 34.3069
rfoot -4.28476 24.9441
rtoes 33.8689
lfemur 1.01808 20.8278 7.1925
ltibia 35.7333
lfoot 8.23088 16.604
ltoes -25.8822
232
root -5.79504 17.7105 3.38104 2.98405 35.1002 -7.93624
lowerback 0.865371 -10.0974 -15.1944
upperback -1.90081 -13.5887 -4.99982
thorax -0.293553 -6.54013 2.80054
lowerneck -5.33684 22.2573 0.840812
upperneck 13.3718 32.5974 -13.494
head 7.43854 14.7203 -1.24668
rclavicle 4.05521e-014 2.8625e-014
rhumerus 29.2732 -25.562 -60.4379
rradius 109.611
rwrist 2.79499
rhand -59.924 20.1182
rfingers 7.12502
rthumb -32.0795 -7.07178
lclavicle 4.05521e-014 2.8625e-014
lhumerus 112.87 -41.6763 43.6047
lradius 37.6085
lwrist 4.42468
lhand -21.8616 -0.716422
lfingers 7.12502
lthumb -175.458 209.215
rfemur -29.6466 22.0026 24.3463
rtibia 34.2939
rfoot -4.32648 24.9776
rtoes 33.6888
lfemur 1.17034 20.8264 7.15435
ltibia 35.6397
lfoot 8.51468 16.6773
ltoes -25.4043
233
root -5.79519 17.7125 3.39702 3.07067 34.8095 -7.66716
lowerback 0.922919 -9.99746 -15.3136
upperback -1.90436 -13.47 -5.12426
thorax -0.352866 -6.47498 2.75454
lowerneck -5.2358 22.2486 1.08504
upperneck 13.2093 32.5548 -13.6262
head 7.42576 14.7194 -1.32162
rclavicle -3.97569e-014 -6.04305e-014
rhumerus 29.6447 -26.2236 -59.352
rradius 109.695
rwrist 3.79858
rhand -60.1592 18.2359
rfingers 7.12502
rthumb -32.3034 -8.90871
lclavicle -3.97569e-014 -6.04305e-014
lhumerus 113.669 -41.258 43.4644
lradius 37.8606
lwrist 4.72758
lhand -22.3816 -0.841233
lfingers 7.12502
lthumb -175.96 209.1
rfemur -29.4909 22.1485 24.213
rtibia 34.2562
rfoot -4.35181 25.1138
rtoes 33.6262
lfemur 1.45129 20.748 7.02225
ltibia 35.5518
lfoot 8.72433 16.6742
ltoes -24.8895
234
root -5.79639 17.7165 3.40975 3.11649 34.5634 -7.55298
lowerback 0.944792 -9.94682 -15.2941
upperback -1.9208 -13.411 -5.17241
thorax -0.407665 -6.44237 2.70907
lowerneck -4.97858 22.2612 1.01871
upperneck 12.6091 32.4596 -13.7845
head 7.19594 14.7292 -1.43395
rclavicle -1.4074e-013 6.36111e-015
rhumerus 30.1623 -26.7978 -58.4022
rradius 109.807
rwrist 4.24507
rhand -60.1321 17.9486
rfingers 7.12502
rthumb -32.2776 -9.20125
lclavicle -1.4074e-013 6.36111e-015
lhumerus 114.178 -40.87 43.5902
lradius 38.1083
lwrist 5.07281
lhand -22.9672 -1.33693
lfingers 7.12502
lthumb -176.525 208.614
rfemur -29.402 22.2516 24.1869
rtibia 34.1997
rfoot -4.1348 25.2872
rtoes 34.0355
lfemur 1.63616 20.6166 6.99771
ltibia 35.4698
lfoot 8.79029 16.782
ltoes -24.2736
235
root -5.79713 17.7221 3.41993 3.22364 34.3767 -7.49635
lowerback 0.928342 -9.92405 -15.2012
upperback -1.99869 -13.3885 -5.20077
thorax -0.512257 -6.42361 2.64584
lowerneck -4.79852 22.2527 1.0622
upperneck 12.3169 32.3804 -13.8313
head 7.07895 14.7274 -1.49732
rclavicle -5.88403e-014 -4.77083e-014
rhumerus 30.5732 -27.2823 -57.5141
rradius 109.896
rwrist 3.78008
rhand -60.019 20.4851
rfingers 7.12502
rthumb -32.1699 -6.68659
lclavicle -5.88403e-014 -4.77083e-014
lhumerus 114.567 -40.5255 43.7187
lradius 38.3772
lwrist 5.64057
lhand -23.5305 -2.10235
lfingers 7.12502
lthumb -177.069 207.857
rfemur -29.421 22.3151 24.1529
rtibia 34.1124
rfoot -3.93721 25.4617
rtoes 34.2061
lfemur 1.63642 20.4971 6.94302
ltibia 35.4034
lfoot 9.40899 16.6837
ltoes -25.4035
236
root -5.79845 17.7264 3.42876 3.36481 34.164 -7.41665
lowerback 0.883535 -9.87828 -15.1642
upperback -2.07427 -13.3294 -5.2482
thorax -0.596846 -6.38683 2.58676
lowerneck -4.80976 22.233 1.29609
upperneck 12.3881 32.3484 -13.7917
head 7.12947 14.7176 -1.50177
rclavicle 1.51871e-013 3.49861e-014
rhumerus 30.7385 -27.7045 -56.5641
rradius 109.94
rwrist 3.48685
rhand -59.8021 21.4963
rfingers 7.12502
rthumb -31.9634 -5.71692
lclavicle 1.51871e-013 3.49861e-014
lhumerus 114.868 -40.3485 43.8944
lradius 38.7427
lwrist 5.89414
lhand -24.0114 -2.5976
lfingers 7.12502
lthumb -177.534 207.368
rfemur -29.4497 22.3748 24.0955
rtibia 33.983
rfoot -3.77121 25.6322
rtoes 34.3732
lfemur 1.60604 20.4332 6.862
ltibia 35.3648
lfoot 10.192 16.4901
ltoes -26.5145
237
root -5.80008 17.7332 3.43533 3.46806 33.9574 -7.39056
lowerback 0.897767 -9.83664 -15.1145
upperback -2.1556 -13.2892 -5.25035
thorax -0.709123 -6.35816 2.57747
lowerneck -4.7865 22.2437 1.40527
upperneck 12.4517 32.3446 -13.6662
head 7.13999 14.7267 -1.47847
rclavicle 1.55052e-014 -4.45278e-014
rhumerus 30.9399 -28.0728 -55.6595
rradius 109.956
rwrist 3.90093
rhand -59.5821 20.6624
rfingers 7.12502
rthumb -31.754 -6.59257
lclavicle 1.55052e-014 -4.45278e-014
lhumerus 115.028 -40.2312 44.227
lradius 39.1419
lwrist 5.9066
lhand -24.3552 -2.68798
lfingers 7.12502
lthumb -177.866 207.281
rfemur -29.4765 22.5147 24.0528
rtibia 33.8332
rfoot -3.47235 25.6823
rtoes 35.0118
lfemur 1.57468 20.3175 6.83594
ltibia 35.3446
lfoot 10.4951 16.5585
ltoes -25.8011
238
root -5.79972 17.744 3.44142 3.54928 33.8176 -7.36107
lowerback 0.956642 -9.81233 -15.0423
upperback -2.24564 -13.2822 -5.24302
thorax -0.853002 -6.34412 2.574
lowerneck -4.74126 22.2722 1.51962
upperneck 12.7102 32.3931 -13.467
head 7.20317 14.7511 -1.42252
rclavicle -9.78021e-014 -3.18055e-015
rhumerus 31.256 -28.3894 -54.9051
rradius 109.916
rwrist 4.22185
rhand -59.467 20.1363
rfingers 7.12502
rthumb -31.6443 -7.14031
lclavicle -9.78021e-014 -3.18055e-015
lhumerus 115.229 -40.0263 44.4471
lradius 39.455
lwrist 6.09284
lhand -24.7349 -2.56063
lfingers 7.12502
lthumb -178.232 207.412
rfemur -29.4688 22.6164 23.9967
rtibia 33.678
rfoot -3.3372 25.7233
rtoes 34.9887
lfemur 1.5307 20.145 6.79704
ltibia 35.3204
lfoot 11.1454 16.2956
ltoes -26.5694
